PathFileType	4	(X/Y/Z)	C:\Users\Basilio\Documents\Thesis Gigler\squatting_fais\c3dfiles\041\SJ_pre3\markers_experimental.trc
DataRate	CameraRate	NumFrames	NumMarkers	Units	OrigDataRate	OrigDataStartFrame	OrigNumFrames
200.000000	200.000000	4	62	mm	200.000000	629	1679
Frame#	Time	FHD			LBHD			RBHD			C7			T10			CLAV			LSHO			LUUPA			LMUPA			LDUPA			LLEP			LMEP			LRAD			LUL			LRFIN			RSHO			RUPA1			RMUPA			RDUPA			RLEP			RMEP			RRAD			RUL			RUFIN			LASI			RASI			USACR			LSACR			RSACR			LTHI1			LTHI2			LTHI3			LTHI4			LLFC			LMFC			LTIB1			LTIB2			LTIB3			LTIB4			LLMAL			LMMAL			LHEE			LMT1			LMT2			LMT5			RTHI			RTHI2			RTHI3			RTHI4			RLFC			RMFC			RTIB1			RTIB2			RTIB3			RTIB4			RLMAL			RMMAL			RHEE			RMT1			RMT2			RMT5			*61			
		X1	Y1	Z1	X2	Y2	Z2	X3	Y3	Z3	X4	Y4	Z4	X5	Y5	Z5	X6	Y6	Z6	X7	Y7	Z7	X8	Y8	Z8	X9	Y9	Z9	X10	Y10	Z10	X11	Y11	Z11	X12	Y12	Z12	X13	Y13	Z13	X14	Y14	Z14	X15	Y15	Z15	X16	Y16	Z16	X17	Y17	Z17	X18	Y18	Z18	X19	Y19	Z19	X20	Y20	Z20	X21	Y21	Z21	X22	Y22	Z22	X23	Y23	Z23	X24	Y24	Z24	X25	Y25	Z25	X26	Y26	Z26	X27	Y27	Z27	X28	Y28	Z28	X29	Y29	Z29	X30	Y30	Z30	X31	Y31	Z31	X32	Y32	Z32	X33	Y33	Z33	X34	Y34	Z34	X35	Y35	Z35	X36	Y36	Z36	X37	Y37	Z37	X38	Y38	Z38	X39	Y39	Z39	X40	Y40	Z40	X41	Y41	Z41	X42	Y42	Z42	X43	Y43	Z43	X44	Y44	Z44	X45	Y45	Z45	X46	Y46	Z46	X47	Y47	Z47	X48	Y48	Z48	X49	Y49	Z49	X50	Y50	Z50	X51	Y51	Z51	X52	Y52	Z52	X53	Y53	Z53	X54	Y54	Z54	X55	Y55	Z55	X56	Y56	Z56	X57	Y57	Z57	X58	Y58	Z58	X59	Y59	Z59	X60	Y60	Z60	X61	Y61	Z61	X62	Y62	Z62	

630	3.145	-252.8940429687501	1760.395751953125	-932.8242797851565	-407.6148376464845	1654.672607421875	-1012.022399902344	-390.7839965820314	1659.15478515625	-859.7525634765627	-431.4368896484376	1517.849853515625	-950.7005004882815	-457.9520568847657	1206.035034179688	-950.7256469726565	-265.7955932617188	1467.295532226563	-952.6129150390627	-346.4101867675782	1520.881958007813	-1124.234375	-406.4999084472657	1389.163330078125	-1263.738891601563	-388.1699829101564	1342.936889648438	-1262.18701171875	-432.2812500000001	1339.2314453125	-1304.531494140625	-446.4431762695314	1293.027465820313	-1328.474609375	-507.0924072265626	1260.4248046875	-1266.59423828125	-383.6188659667969	1087.986694335938	-1165.477416992188	-371.7179565429688	1046.274291992188	-1226.13916015625	-333.2595214843751	1066.452880859375	-1131.200561523438	-333.7888793945313	1516.4384765625	-780.612243652344	-391.1298828125001	1367.945068359375	-621.3848876953126	-349.9929199218751	1339.015747070313	-630.0770263671876	-374.7039489746094	1306.580688476563	-588.7139282226564	-371.3544006347657	1257.764770507813	-572.6721801757814	-449.7442321777345	1237.911376953125	-620.8743896484376	-375.2462768554688	1060.029663085938	-740.3889160156251	-334.0756530761719	1049.21630859375	-784.6329345703127	-344.5493774414063	1014.977722167969	-686.1876831054689	-297.4442138671876	1010.085205078125	-1065.295166015625	-298.8299865722657	997.7467041015627	-852.610778808594	-469.821014404297	1098.55078125	-954.465759277344	-487.9630432128907	1074.884521484375	-981.8355102539065	-493.0780639648439	1074.637817382813	-928.1783447265627	-426.7468566894532	818.080017089844	-1157.17236328125	-385.8418884277345	743.8904418945314	-1168.38818359375	-338.9354248046876	750.4705200195314	-1161.30908203125	-409.3287353515626	687.3005981445314	-1160.99658203125	-370.8258056640626	512.4352416992189	-1174.381103515625	-353.4946594238282	478.5291137695314	-1061.077758789063	-339.5627746582032	315.2259521484376	-1147.588134765625	-391.571746826172	282.5184326171876	-1214.41845703125	-353.7977905273438	275.1600646972657	-1190.72412109375	-354.3522644042969	193.703109741211	-1168.10498046875	-416.2649230957032	101.6296844482422	-1221.774536132813	-374.5200500488282	105.5126266479492	-1140.960205078125	-472.473602294922	52.22222900390626	-1185.609130859375	-255.6508178710938	62.13886642456056	-1163.00927734375	-249.9652404785157	63.17978286743165	-1207.8232421875	-290.9043884277344	38.18645095825196	-1263.4013671875	-418.2165527343751	757.1335449218751	-759.4082031250001	-375.3587341308594	708.1497192382814	-746.7599487304689	-342.2362670898438	713.1593627929689	-748.7891235351564	-392.5217590332032	625.6438598632814	-756.2282104492189	-374.8781127929688	502.2310485839845	-740.7796630859376	-344.5587463378907	472.6420898437501	-852.472839355469	-339.5617675781251	335.3518066406251	-728.1351318359376	-423.8918762207032	262.0312500000001	-711.1779785156251	-377.1262512207032	259.0900573730469	-708.5151367187501	-353.8427124023438	208.194564819336	-729.5556640625001	-410.5070190429689	94.16174316406251	-705.9744873046876	-378.7521972656251	103.1440963745117	-785.273132324219	-465.1898803710939	49.21128845214845	-753.7633056640626	-247.6751251220704	54.43991851806642	-754.0177001953126	-246.6703033447266	57.93342590332033	-701.3525390625001	-291.9108581542969	36.65322875976563	-653.4502563476564	-4216.917968750001	853.1736450195315	-3944.628173828126	
631	3.15	-252.0485839843751	1760.062744140625	-932.8780517578127	-407.0532226562501	1654.383178710938	-1012.075744628906	-390.2794799804689	1658.8974609375	-859.9575195312502	-430.9679260253907	1517.722534179688	-950.6719970703127	-458.0559082031251	1206.023681640625	-950.6560058593752	-265.1112365722657	1467.094482421875	-952.688171386719	-345.8846435546876	1520.670288085938	-1124.270385742188	-406.0009155273439	1389.040283203125	-1263.828979492188	-387.6998901367189	1342.725830078125	-1262.286865234375	-431.7068786621095	1339.091552734375	-1304.623413085938	-446.0798339843751	1292.927856445313	-1328.55859375	-506.8750000000001	1260.542236328125	-1266.796630859375	-383.9552001953126	1087.824096679688	-1165.429565429688	-372.1040039062501	1045.9296875	-1225.998779296875	-333.7092590332032	1066.156494140625	-1131.090942382813	-333.2751159667969	1516.323486328125	-780.6174926757815	-390.6087951660157	1367.828857421875	-621.3932495117189	-349.7719116210938	1338.869873046875	-629.9829711914064	-374.3475952148438	1306.470947265625	-588.6859741210939	-371.1395263671876	1257.71484375	-572.6998291015626	-449.5725097656251	1237.9384765625	-620.8113403320314	-375.6008605957032	1059.89306640625	-740.2973632812501	-334.2712402343751	1049.067993164063	-784.625915527344	-345.1190490722657	1014.8173828125	-686.0796508789064	-297.7760314941407	1009.701904296875	-1065.258422851563	-299.4212951660157	997.4522705078127	-852.6233520507815	-470.1282043457032	1098.621459960938	-954.3732910156252	-488.317352294922	1075.0771484375	-981.7864379882815	-493.712615966797	1074.801147460938	-928.288269042969	-427.0335998535157	817.6541748046877	-1157.019409179688	-385.9136657714845	743.6979980468751	-1168.415649414063	-339.0700683593751	750.4973754882814	-1161.4248046875	-409.0807189941407	686.9656372070314	-1160.887451171875	-370.1591186523438	512.3692626953126	-1174.5869140625	-352.7178039550782	478.5166320800782	-1061.286254882813	-339.1218566894532	315.2597961425782	-1147.82080078125	-391.0416259765626	282.6461181640626	-1214.402954101563	-353.6423339843751	275.0219726562501	-1190.856689453125	-354.0856323242188	193.6475982666016	-1168.247924804688	-416.2327880859376	101.6039123535157	-1221.811645507813	-374.4393005371094	105.5327682495117	-1141.006103515625	-472.4721069335939	52.23735809326173	-1185.59228515625	-255.5942993164063	62.22988510131837	-1162.98876953125	-249.9738159179688	63.14823532104494	-1207.812866210938	-290.9270019531251	38.13845443725587	-1263.419555664063	-418.3640441894532	756.8749389648439	-759.3621826171876	-375.3733520507813	708.0158081054689	-746.6422729492189	-342.3251647949219	713.2111816406251	-748.6213378906251	-392.3120117187501	625.4517211914064	-756.0375366210939	-374.3145446777344	502.1427612304689	-740.4749145507814	-344.2190246582032	472.5135192871095	-852.201110839844	-339.1160888671876	335.2274780273438	-728.0675659179689	-423.5879821777345	261.9357604980469	-711.0065917968751	-376.7916870117188	259.0614013671876	-708.4852294921876	-353.7375183105469	208.0251159667969	-729.4696655273439	-410.4372863769532	94.1365203857422	-705.9118041992189	-378.3390808105469	103.0969924926758	-785.4495849609377	-465.1367492675782	49.1718101501465	-753.7457885742189	-247.6713409423829	54.46987915039064	-754.0627441406251	-246.610092163086	57.93013381958009	-701.3883056640626	-291.9073486328126	36.66215515136719	-653.4677124023439	-4216.679199218751	853.0994873046877	-3944.626464843751	
632	3.155	-251.8626403808594	1760.088623046875	-933.0057373046877	-406.4212036132814	1654.042236328125	-1012.101867675781	-389.8563537597657	1658.573852539063	-859.9538574218752	-430.4407958984376	1517.581298828125	-950.6727294921877	-458.0838317871095	1205.96923828125	-950.6264648437502	-264.4996643066407	1467.001342773438	-952.6461181640627	-345.3703613281251	1520.453369140625	-1124.252319335938	-405.381805419922	1388.814697265625	-1263.91162109375	-387.2626953125001	1342.502197265625	-1262.3134765625	-431.232147216797	1338.933471679688	-1304.723754882813	-445.7043457031251	1292.832153320313	-1328.608276367188	-506.5734252929689	1260.646728515625	-1266.992309570313	-384.317108154297	1087.682983398438	-1165.344360351563	-372.6459655761719	1045.669311523438	-1225.896118164063	-334.1280212402344	1065.86572265625	-1131.024047851563	-332.7697448730469	1516.157958984375	-780.616394042969	-390.213104248047	1367.779663085938	-621.1865844726564	-349.2937927246094	1338.668579101563	-630.0395507812501	-374.1314392089844	1306.371337890625	-588.6376953125001	-370.8612976074219	1257.495361328125	-572.6149902343751	-449.4003295898439	1238.012939453125	-620.7111816406251	-375.9464111328126	1059.768798828125	-740.2559814453126	-334.4195251464844	1048.950317382813	-784.6353149414065	-345.3756408691407	1014.620849609375	-686.1922607421876	-298.3842468261719	1009.371032714844	-1065.09228515625	-300.1397399902344	997.115417480469	-852.6534423828127	-470.4368896484376	1098.727172851563	-954.299255371094	-488.776580810547	1075.232421875	-981.6853027343752	-493.8879394531251	1074.910888671875	-928.0073242187502	-427.2976379394532	817.241149902344	-1157.008422851563	-385.9398803710939	743.5415039062501	-1168.491455078125	-338.6121826171876	750.1013183593751	-1161.34033203125	-408.9800415039064	686.6407470703126	-1160.899047851563	-369.4361877441407	512.3161621093751	-1174.77197265625	-351.6012878417969	478.3653564453126	-1061.589721679688	-338.4970397949219	315.0553588867188	-1148.012451171875	-390.609344482422	282.6899719238282	-1214.602661132813	-353.3976135253907	274.8991088867188	-1191.134155273438	-353.9002075195313	193.5571899414063	-1168.32421875	-416.2264709472657	101.5990524291992	-1221.853515625	-374.3683166503907	105.5290451049805	-1141.0439453125	-472.4974975585939	52.24496841430665	-1185.6015625	-255.6206054687501	62.30032348632814	-1163.07958984375	-249.9415893554688	63.26916122436525	-1207.913208007813	-290.6449890136719	37.8988265991211	-1263.363891601563	-418.550750732422	756.6023559570314	-759.2012939453126	-375.4242858886719	707.8870239257814	-746.5444946289064	-342.3183593750001	713.2009277343751	-748.5871582031251	-392.0073242187501	625.2344360351564	-755.9200439453126	-373.7835083007813	502.1047668457032	-740.2007446289064	-343.7288208007813	472.4559936523439	-851.8181762695315	-338.6988220214844	335.1320190429688	-727.9929809570314	-423.306854248047	261.9718627929688	-710.8038330078126	-376.5760498046876	259.0858764648438	-708.3035888671876	-353.5481567382813	207.9278869628907	-729.3888549804689	-410.4034729003907	94.10601806640626	-705.8755493164064	-378.7206115722657	103.1998901367188	-785.2369384765627	-465.1337890625001	49.2309036254883	-753.7615356445314	-247.6939849853516	54.50411605834962	-754.0444335937501	-246.6099853515626	57.96130752563478	-701.3763427734376	-291.9146118164063	36.68338012695313	-653.4902954101564	-4216.792968750001	853.1658325195315	-3944.664306640626	
633	3.16	-251.4002532958985	1759.717651367188	-932.9685668945315	-405.8011474609376	1653.639282226563	-1012.119934082031	-389.3559875488282	1658.284057617188	-860.1007080078127	-429.9015502929689	1517.316162109375	-950.6728515625002	-458.1683959960939	1205.920532226563	-950.5640258789065	-264.1802978515626	1466.613525390625	-952.6762695312502	-344.8543090820313	1520.21630859375	-1124.37548828125	-404.6867980957032	1388.526489257813	-1263.9970703125	-386.6940002441407	1342.189331054688	-1262.348266601563	-430.705047607422	1338.714599609375	-1304.792846679688	-445.3702697753907	1292.642700195313	-1328.65869140625	-506.3240966796876	1260.791015625	-1267.178588867188	-384.6856384277345	1087.434692382813	-1165.301879882813	-373.1494750976563	1045.322509765625	-1225.691772460938	-334.4645385742188	1065.479614257813	-1130.99658203125	-332.1389770507813	1515.910522460938	-780.6046142578127	-389.829071044922	1367.670166015625	-621.0863647460939	-348.9452819824219	1338.385864257813	-630.0805664062501	-373.4578247070313	1306.220092773438	-588.7922973632814	-370.7639465332032	1257.566772460938	-572.5501708984376	-449.8216247558595	1237.958618164063	-620.4545288085939	-376.3330993652344	1059.60205078125	-740.1950073242189	-334.7276916503907	1048.692749023438	-784.7222290039065	-345.6342163085938	1014.480651855469	-686.1578369140626	-298.9755249023438	1008.947570800781	-1064.837524414063	-300.7971496582032	996.7388916015627	-852.7125244140627	-470.7583007812501	1098.829345703125	-954.2368774414065	-489.2139587402345	1075.34423828125	-981.635925292969	-494.5639038085939	1075.0361328125	-928.1001586914065	-427.6382751464845	816.8027343750002	-1156.984619140625	-385.985809326172	743.3979492187501	-1168.471069335938	-339.1708068847657	750.3163452148439	-1161.559204101563	-409.1692504882814	686.4351196289064	-1161.447265625	-368.6512756347657	512.2310180664064	-1175.00048828125	-350.8116149902344	478.4689025878907	-1061.876831054688	-338.1811828613282	314.7987060546876	-1148.106567382813	-390.3735656738282	282.4573364257813	-1214.8427734375	-352.8098754882813	274.7542419433594	-1191.28466796875	-353.6303710937501	193.221908569336	-1168.5576171875	-416.2073974609376	101.6149826049805	-1221.845581054688	-374.3492431640626	105.5411453247071	-1141.083984375	-472.4252319335939	52.25736618041994	-1185.5869140625	-255.6000671386719	62.30932235717775	-1163.061157226563	-249.941390991211	63.2822608947754	-1207.966674804688	-290.8807067871094	38.15406036376954	-1263.45556640625	-418.7999267578126	756.2565917968751	-759.0077514648439	-375.5038146972657	707.9665527343751	-746.4114990234376	-342.3349304199219	713.1909179687501	-748.4862060546876	-391.8295288085939	624.8958129882814	-755.6001586914064	-373.2182312011719	501.915985107422	-739.8952636718751	-343.2780456542969	472.3917236328126	-851.3912353515627	-338.3947753906251	335.0921936035157	-727.6565551757814	-423.0376586914064	261.9889526367188	-710.6874389648439	-376.2642822265626	258.9961853027344	-708.1862792968751	-353.2528076171876	207.7020721435547	-729.3443603515626	-410.3514099121095	94.11544036865236	-705.8106079101564	-378.6966857910157	103.202865600586	-785.2172851562502	-465.1196289062501	49.2128143310547	-753.7258911132814	-247.4260864257813	54.3889503479004	-753.9763793945314	-246.6280670166016	58.08916091918947	-701.3470458984376	-291.9046325683594	36.72145462036134	-653.4373168945314	-4217.146972656251	853.1829833984377	-3944.758789062501	
